<svg width="68" height="68" viewBox="0 0 68 68" fill="none" xmlns="http://www.w3.org/2000/svg">
<path d="M61.0498 11.011L35.0185 0.203069C34.3664 -0.0676029 33.6334 -0.0677357 32.9815 0.203069L6.95021 11.011C5.95877 11.4227 5.3125 12.3906 5.3125 13.4641V26.6026C5.3125 44.6934 16.2468 60.9665 32.9962 67.803C33.6395 68.0656 34.3603 68.0656 35.0038 67.803C51.7529 60.9666 62.6875 44.6935 62.6875 26.6026V13.4641C62.6875 12.3906 62.0414 11.4227 61.0498 11.011ZM57.375 26.6026C57.375 41.9816 48.3438 56.139 34 62.4585C20.0395 56.3078 10.625 42.3984 10.625 26.6026V15.2374L34 5.5323L57.375 15.2374V26.6026ZM31.064 35.556L42.4811 24.1391C43.5184 23.1018 45.2002 23.1017 46.2376 24.1391C47.275 25.1765 47.2749 26.8583 46.2375 27.8955L32.9423 41.1907C31.9047 42.2283 30.2229 42.2279 29.1858 41.1907L21.7624 33.7673C20.725 32.7299 20.725 31.0481 21.7624 30.0108C22.7998 28.9736 24.4816 28.9734 25.5189 30.0108L31.064 35.556Z" fill="#E50913"/>
</svg>
