<svg width="72" height="72" viewBox="0 0 72 72" fill="none" xmlns="http://www.w3.org/2000/svg">
<path d="M36.0514 0C16.1752 0 0.000366211 16.1716 0.000366211 36.0504C0.000366211 55.9291 16.1741 72.1034 36.0514 72.1034C55.9322 72.1034 72.1025 55.9303 72.1025 36.0504C72.1025 16.1716 55.9332 0 36.0514 0ZM51.6543 28.6641L32.7731 47.5453C32.2062 48.1115 31.459 48.3974 30.7189 48.3974C29.973 48.3974 29.2328 48.1118 28.664 47.5453L20.4524 39.3337C19.3171 38.1973 19.3171 36.3593 20.4524 35.2242C21.5875 34.0891 23.4255 34.0891 24.5609 35.2242L30.7189 41.3843L47.5484 24.554C48.6811 23.4201 50.519 23.4201 51.6543 24.554C52.7896 25.691 52.7896 27.529 51.6543 28.6641Z" fill="#009D00"/>
</svg>
